UNKNOWN
nRows=4
nColumns=264

# SIMM Motion File Header:
name UNKNOWN
datacolumns 264
datarows 4
otherdata 1
range 1.17500000 1.20000000
endheader
time	pelvis_tx	pelvis_ty	pelvis_tz	pelvis_list	pelvis_rotation	pelvis_tilt	hip_flexion_r	hip_adduction_r	hip_rotation_r	knee_angle_r	ankle_angle_r	subtalar_angle_r	mtp_angle_r	hip_flexion_l	hip_adduction_l	hip_rotation_l	knee_angle_l	ankle_angle_l	subtalar_angle_l	mtp_angle_l	lumbar_extension	lumbar_bending	lumbar_rotation	midhip_tx	midhip_ty	midhip_tz	hip_r_tx	hip_r_ty	hip_r_tz	hip_l_tx	hip_l_ty	hip_l_tz	knee_r_tx	knee_r_ty	knee_r_tz	knee_l_tx	knee_l_ty	knee_l_tz	ankle_r_tx	ankle_r_ty	ankle_r_tz	ankle_l_tx	ankle_l_ty	ankle_l_tz	midasis_tx	midasis_ty	midasis_tz	asis_r_tx	asis_r_ty	asis_r_tz	asis_l_tx	asis_l_ty	asis_l_tz	psis_r_tx	psis_r_ty	psis_r_tz	psis_l_tx	psis_l_ty	psis_l_tz	epicondLat_r_tx	epicondLat_r_ty	epicondLat_r_tz	epicondLat_l_tx	epicondLat_l_ty	epicondLat_l_tz	epicondMed_r_tx	epicondMed_r_ty	epicondMed_r_tz	epicondMed_l_tx	epicondMed_l_ty	epicondMed_l_tz	malleolusLat_r_tx	malleolusLat_r_ty	malleolusLat_r_tz	malleolusLat_l_tx	malleolusLat_l_ty	malleolusLat_l_tz	malleolusMedv_r_tx	malleolusMedv_r_ty	malleolusMedv_r_tz	malleolusMedv_l_tx	malleolusMedv_l_ty	malleolusMedv_l_tz	neck_tx	neck_ty	neck_tz	subclavicle_r_tx	subclavicle_r_ty	subclavicle_r_tz	subclavicle_l_tx	subclavicle_l_ty	subclavicle_l_tz	sternalnotch_tx	sternalnotch_ty	sternalnotch_tz	xyphoidprocess_tx	xyphoidprocess_ty	xyphoidprocess_tz	thighwand_r_tx	thighwand_r_ty	thighwand_r_tz	thighwand_l_tx	thighwand_l_ty	thighwand_l_tz	upperleg1_r_tx	upperleg1_r_ty	upperleg1_r_tz	upperleg1_l_tx	upperleg1_l_ty	upperleg1_l_tz	upperleg2_r_tx	upperleg2_r_ty	upperleg2_r_tz	upperleg2_l_tx	upperleg2_l_ty	upperleg2_l_tz	shankwand_r_tx	shankwand_r_ty	shankwand_r_tz	shankwand_l_tx	shankwand_l_ty	shankwand_l_tz	lowerleg1_r_tx	lowerleg1_r_ty	lowerleg1_r_tz	lowerleg1_l_tx	lowerleg1_l_ty	lowerleg1_l_tz	toe_r_tx	toe_r_ty	toe_r_tz	toe_l_tx	toe_l_ty	toe_l_tz	ground_force_vx	ground_force_vy	ground_force_vz	ground_force_px	ground_force_py	ground_force_pz	ground_force_vx	ground_force_vy	ground_force_vz	ground_force_px	ground_force_py	ground_force_pz	ground_torque_x	ground_torque_y	ground_torque_z	ground_torque_x	ground_torque_y	ground_torque_z	ground_marker_px	ground_marker_py	ground_marker_pz	ground_marker_px	ground_marker_py	ground_marker_pz	ground_marker_px	ground_marker_py	ground_marker_pz	ground_marker_px	ground_marker_py	ground_marker_pz	ground_marker_px	ground_marker_py	ground_marker_pz	ground_marker_px	ground_marker_py	ground_marker_pz	ground_marker_px	ground_marker_py	ground_marker_pz	ground_marker_px	ground_marker_py	ground_marker_pz	ground_marker_px	ground_marker_py	ground_marker_pz	ground_marker_px	ground_marker_py	ground_marker_pz	ground_marker_px	ground_marker_py	ground_marker_pz	ground_marker_px	ground_marker_py	ground_marker_pz	ground_marker_px	ground_marker_py	ground_marker_pz	ground_marker_px	ground_marker_py	ground_marker_pz	ground_marker_px	ground_marker_py	ground_marker_pz	ground_marker_px	ground_marker_py	ground_marker_pz	ground_marker_px	ground_marker_py	ground_marker_pz	ground_marker_px	ground_marker_py	ground_marker_pz	ground_marker_px	ground_marker_py	ground_marker_pz	ground_marker_px	ground_marker_py	ground_marker_pz	ground_marker_px	ground_marker_py	ground_marker_pz	ground_marker_px	ground_marker_py	ground_marker_pz	ground_marker_px	ground_marker_py	ground_marker_pz	ground_marker_px	ground_marker_py	ground_marker_pz	ground_marker_px	ground_marker_py	ground_marker_pz	ground_marker_px	ground_marker_py	ground_marker_pz	ground_marker_px	ground_marker_py	ground_marker_pz	ground_marker_px	ground_marker_py	ground_marker_pz	ground_marker_px	ground_marker_py	ground_marker_pz	ground_marker_px	ground_marker_py	ground_marker_pz	ground_marker_px	ground_marker_py	ground_marker_pz	ground_marker_px	ground_marker_py	ground_marker_pz	ground_marker_px	ground_marker_py	ground_marker_pz	ground_marker_px	ground_marker_py	ground_marker_pz	ground_marker_px	ground_marker_py	ground_marker_pz	ground_marker_px	ground_marker_py	ground_marker_pz	ground_marker_px	ground_marker_py	ground_marker_pz	
      1.17500000	      1.09444644	      0.89126196	     -0.28004944	      3.08873026	      2.70710297	     -1.84612465	     23.00560930	     -4.26365365	      8.13199720	     -5.11602231	    -10.58180211	      0.00002537	      0.00000000	    -17.54920382	      5.88256100	     13.03029491	    -14.30478416	     11.27251990	      0.00007854	      0.00000000	     -2.75648086	      0.20755002	     -4.60363845	      1.04621900	      0.85498800	     -0.26694900	      1.03706500	      0.86166000	     -0.17762100	      1.05537400	      0.84831600	     -0.35627700	      1.18208200	      0.45966200	     -0.18899200	      0.89596700	      0.45994700	     -0.32278900	      1.28736000	      0.07179600	     -0.20543700	      0.68314800	      0.11449300	     -0.30671200	      1.11418000	      0.92944400	     -0.27535600	      1.11709000	      0.93043200	     -0.15487700	      1.11127000	      0.92845500	     -0.39583600	      0.92610400	      0.97096900	     -0.23085700	      0.93174900	      0.97066400	     -0.31694900	      1.19166500	      0.46671000	     -0.12894200	      0.89960800	      0.44821800	     -0.38306600	      1.16509400	      0.45056400	     -0.24332400	      0.88341300	      0.44899100	     -0.27296800	      1.27342400	      0.06656800	     -0.16830900	      0.66640200	      0.12325100	     -0.34082800	      1.29568000	      0.08807100	     -0.23222500	      0.69304700	      0.12677300	     -0.27992900	      0.93235500	      1.39879700	     -0.25580700	      1.05571900	      1.31208200	     -0.20593400	      1.06414700	      1.32162700	     -0.31282700	      1.04289400	      1.32571400	     -0.25660600	      1.11666600	      1.15886000	     -0.27790900	      1.19276600	      0.56502400	     -0.05378800	      1.06829600	      0.48398800	     -0.33419600	      1.18327800	      0.63405000	     -0.11736600	      1.02077700	      0.56059200	     -0.37320200	      1.21019000	      0.55218600	     -0.14341600	      0.97155700	      0.48842400	     -0.36857800	      1.25521400	      0.19666300	     -0.07555800	      0.75731800	      0.22620300	     -0.43118200	      1.25632400	      0.16476700	     -0.15012100	      0.72697200	      0.20334600	     -0.35857800	      1.41032400	      0.04936900	     -0.18600300	      0.77698600	      0.04028900	     -0.32761300	    -52.06873253	    290.88128191	      7.97185443	      1.28150098	      0.00000000	     -0.21197705	    122.47444065	    551.47626695	     11.92981136	      0.79027759	      0.00000000	     -0.31476825	      0.00000000	     -0.36061029	      0.00000000	      0.00000000	     -1.37781396	      0.00000000	      1.04621935	      0.85498780	     -0.26694873	      1.03706527	      0.86165977	     -0.17762063	      1.05537355	      0.84831583	     -0.35627681	      1.18208241	      0.45966208	     -0.18899181	      0.89596736	      0.45994654	     -0.32278940	      1.28736007	      0.07179553	     -0.20543693	      0.68314797	      0.11449344	     -0.30671182	      1.11417961	      0.92944372	     -0.27535611	      1.11708963	      0.93043232	     -0.15487652	      1.11126971	      0.92845517	     -0.39583573	      0.92610419	      0.97096950	     -0.23085704	      0.93174928	      0.97066432	     -0.31694940	      1.19166517	      0.46670988	     -0.12894236	      0.89960831	      0.44821832	     -0.38306606	      1.16509390	      0.45056352	     -0.24332386	      0.88341266	      0.44899112	     -0.27296758	      1.27342415	      0.06656832	     -0.16830920	      0.66640234	      0.12325149	     -0.34082755	      1.29567993	      0.08807143	     -0.23222490	      0.69304734	      0.12677312	     -0.27992943	      0.93235546	      1.39879704	     -0.25580707	      1.05571914	      1.31208217	     -0.20593353	      1.06414711	      1.32162714	     -0.31282723	      1.04289448	      1.32571435	     -0.25660586	      1.11666608	      1.15885985	     -0.27790892	      1.19276631	      0.56502444	     -0.05378840	      1.06829572	      0.48398772	     -0.33419645	      1.18327796	      0.63405013	     -0.11736643	      1.02077734	      0.56059188	     -0.37320209	      1.21019042	      0.55218649	     -0.14341617	      0.97155702	      0.48842433	     -0.36857837	      1.25521445	      0.19666262	     -0.07555773	      0.75731832	      0.22620346	     -0.43118238	      1.25632405	      0.16476743	     -0.15012096	      0.72697240	      0.20334582	     -0.35857800	      1.41032386	      0.04936888	     -0.18600334	      0.77698648	      0.04028927	     -0.32761255
      1.18333000	      1.10555425	      0.89238484	     -0.27886766	      2.41381587	      2.38964341	     -1.95581109	     22.87131894	     -3.30655354	      8.49991082	     -5.84977330	    -10.42235024	      0.00001772	      0.00000000	    -17.46685869	      5.28605092	     12.72330485	    -15.35130394	      9.89511780	      0.00009446	      0.00000000	     -2.43318218	      1.12747701	     -4.31864197	      1.05746000	      0.85598100	     -0.26555600	      1.04813700	      0.86320700	     -0.17628900	      1.06678300	      0.84875500	     -0.35482400	      1.19001900	      0.46124700	     -0.18860500	      0.90600900	      0.46111400	     -0.32266400	      1.28905200	      0.07153400	     -0.20601700	      0.68752500	      0.11878700	     -0.30785000	      1.12565400	      0.93024400	     -0.27425400	      1.12824100	      0.93197300	     -0.15378000	      1.12306600	      0.92851500	     -0.39472800	      0.93743100	      0.97252400	     -0.23062000	      0.94340900	      0.97152900	     -0.31681300	      1.20119400	      0.46814400	     -0.12872600	      0.91037000	      0.44857800	     -0.38300400	      1.17257700	      0.45249300	     -0.24272300	      0.89510200	      0.45086400	     -0.26982100	      1.27598000	      0.06671600	     -0.16852100	      0.67069800	      0.12817200	     -0.34175800	      1.29754700	      0.08768900	     -0.23290100	      0.69762300	      0.13080100	     -0.28086300	      0.94268600	      1.39946100	     -0.25443700	      1.06586800	      1.31292700	     -0.20425500	      1.07380400	      1.32282600	     -0.31117000	      1.05314300	      1.32669100	     -0.25519600	      1.12669400	      1.16001800	     -0.27700100	      1.20268300	      0.56598100	     -0.05347900	      1.07976500	      0.48378500	     -0.33436800	      1.19410300	      0.63531500	     -0.11666100	      1.03227200	      0.56096000	     -0.37300500	      1.21957400	      0.55349800	     -0.14283400	      0.98169100	      0.48834600	     -0.36707100	      1.26272500	      0.19690700	     -0.07574700	      0.76311600	      0.23034200	     -0.43176300	      1.26259200	      0.16482600	     -0.15030000	      0.73302500	      0.20713500	     -0.35915600	      1.41280800	      0.04702300	     -0.18638800	      0.77796900	      0.04029500	     -0.32752400	    -63.88969974	    314.06462536	     -0.08028183	      1.28792505	      0.00000000	     -0.21004051	    120.93396413	    502.26534388	      8.22104451	      0.79063531	      0.00000000	     -0.31463898	      0.00000000	     -0.46429459	      0.00000000	      0.00000000	     -1.24258887	      0.00000000	      1.05746007	      0.85598087	     -0.26555616	      1.04813683	      0.86320704	     -0.17628866	      1.06678343	      0.84875476	     -0.35482362	      1.19001925	      0.46124673	     -0.18860519	      0.90600932	      0.46111393	     -0.32266366	      1.28905237	      0.07153440	     -0.20601651	      0.68752533	      0.11878733	     -0.30785006	      1.12565362	      0.93024373	     -0.27425376	      1.12824142	      0.93197298	     -0.15377973	      1.12306583	      0.92851454	     -0.39472777	      0.93743080	      0.97252381	     -0.23062035	      0.94340855	      0.97152883	     -0.31681281	      1.20119429	      0.46814430	     -0.12872553	      0.91036975	      0.44857818	     -0.38300437	      1.17257726	      0.45249304	     -0.24272293	      0.89510214	      0.45086423	     -0.26982099	      1.27598035	      0.06671572	     -0.16852117	      0.67069751	      0.12817183	     -0.34175813	      1.29754686	      0.08768851	     -0.23290090	      0.69762307	      0.13080086	     -0.28086284	      0.94268638	      1.39946115	     -0.25443652	      1.06586826	      1.31292725	     -0.20425470	      1.07380378	      1.32282627	     -0.31116974	      1.05314314	      1.32669091	     -0.25519565	      1.12669384	      1.16001797	     -0.27700096	      1.20268345	      0.56598139	     -0.05347889	      1.07976520	      0.48378474	     -0.33436787	      1.19410264	      0.63531488	     -0.11666121	      1.03227174	      0.56095970	     -0.37300494	      1.21957386	      0.55349821	     -0.14283352	      0.98169124	      0.48834604	     -0.36707148	      1.26272511	      0.19690734	     -0.07574727	      0.76311576	      0.23034206	     -0.43176290	      1.26259184	      0.16482572	     -0.15029995	      0.73302478	      0.20713484	     -0.35915613	      1.41280758	      0.04702344	     -0.18638769	      0.77796870	      0.04029528	     -0.32752416
      1.19167000	      1.11694352	      0.89352550	     -0.27776794	      1.77637691	      1.99340784	     -2.08286297	     22.79300593	     -2.33312406	      8.97297680	     -6.80028216	     -9.67940903	      0.00000921	      0.00000000	    -17.30366032	      4.77343441	     12.30693542	    -16.51033270	      8.34233496	      0.00011625	      0.00000000	     -2.07620861	      2.06424007	     -4.27737347	      1.06888900	      0.85728800	     -0.26398700	      1.05925400	      0.86523600	     -0.17481500	      1.07852400	      0.84933900	     -0.35316000	      1.19832500	      0.46358600	     -0.18852900	      0.91785400	      0.46109700	     -0.32249700	      1.29003300	      0.07123700	     -0.20680400	      0.69257200	      0.12326400	     -0.30910200	      1.13715600	      0.93132200	     -0.27307600	      1.13940600	      0.93388500	     -0.15274300	      1.13490600	      0.92875800	     -0.39340800	      0.94866400	      0.97434700	     -0.23050700	      0.95518300	      0.97257800	     -0.31676000	      1.21063200	      0.46958400	     -0.12866800	      0.92191500	      0.44895800	     -0.38309100	      1.18068300	      0.45550100	     -0.24301200	      0.90768500	      0.45066400	     -0.26897200	      1.27801300	      0.06683300	     -0.16890800	      0.67564200	      0.13331300	     -0.34276900	      1.29855600	      0.08687900	     -0.23392500	      0.70315600	      0.13516700	     -0.28175200	      0.95282300	      1.40052600	     -0.25286400	      1.07611500	      1.31413100	     -0.20249000	      1.08417000	      1.32388500	     -0.30960700	      1.06334300	      1.32786600	     -0.25371800	      1.13715700	      1.16116800	     -0.27502700	      1.21281700	      0.56713400	     -0.05333200	      1.09206600	      0.48384200	     -0.33449100	      1.20524400	      0.63702900	     -0.11594100	      1.04446200	      0.56134100	     -0.37296100	      1.22930200	      0.55533400	     -0.14251500	      0.99329300	      0.48785500	     -0.36672600	      1.27021000	      0.19720100	     -0.07616100	      0.76950800	      0.23473400	     -0.43247000	      1.26761600	      0.16449600	     -0.15071100	      0.73918100	      0.21169200	     -0.36055400	      1.41481600	      0.04542800	     -0.18675400	      0.77909900	      0.04025200	     -0.32728100	    -68.75787206	    334.60226196	     -7.26377475	      1.29251099	      0.00000000	     -0.20878349	    117.07139201	    446.52736943	      5.27346320	      0.79094678	      0.00000000	     -0.31459503	      0.00000000	     -0.43005493	      0.00000000	      0.00000000	     -1.11346216	      0.00000000	      1.06888902	      0.85728759	     -0.26398748	      1.05925393	      0.86523640	     -0.17481461	      1.07852411	      0.84933877	     -0.35316038	      1.19832480	      0.46358603	     -0.18852875	      0.91785371	      0.46109700	     -0.32249683	      1.29003310	      0.07123692	     -0.20680378	      0.69257170	      0.12326448	     -0.30910233	      1.13715589	      0.93132162	     -0.27307585	      1.13940561	      0.93388540	     -0.15274337	      1.13490617	      0.92875785	     -0.39340833	      0.94866413	      0.97434700	     -0.23050734	      0.95518273	      0.97257805	     -0.31675994	      1.21063185	      0.46958420	     -0.12866758	      0.92191505	      0.44895846	     -0.38309103	      1.18068266	      0.45550057	     -0.24301186	      0.90768462	      0.45066366	     -0.26897180	      1.27801335	      0.06683262	     -0.16890754	      0.67564183	      0.13331251	     -0.34276858	      1.29855561	      0.08687928	     -0.23392488	      0.70315611	      0.13516724	     -0.28175193	      0.95282274	      1.40052593	     -0.25286415	      1.07611489	      1.31413102	     -0.20248973	      1.08417034	      1.32388544	     -0.30960742	      1.06334341	      1.32786584	     -0.25371760	      1.13715696	      1.16116822	     -0.27502698	      1.21281707	      0.56713426	     -0.05333157	      1.09206569	      0.48384190	     -0.33449128	      1.20524418	      0.63702911	     -0.11594108	      1.04446232	      0.56134069	     -0.37296128	      1.22930193	      0.55533379	     -0.14251481	      0.99329263	      0.48785487	     -0.36672607	      1.27020991	      0.19720092	     -0.07616066	      0.76950777	      0.23473427	     -0.43246987	      1.26761568	      0.16449597	     -0.15071131	      0.73918080	      0.21169226	     -0.36055392	      1.41481614	      0.04542828	     -0.18675400	      0.77909851	      0.04025236	     -0.32728082
      1.20000000	      1.12844573	      0.89475058	     -0.27663600	      1.16918855	      1.54925921	     -2.20849727	     22.73046127	     -1.35522043	      9.42926912	     -7.86307103	     -8.70839357	      0.00000151	      0.00000000	    -17.05153373	      4.31512183	     11.84628379	    -17.79598991	      6.60034140	      0.00014368	      0.00000000	     -1.67845091	      2.96430387	     -4.27018181	      1.08031200	      0.85898200	     -0.26217900	      1.07057600	      0.86774100	     -0.17309300	      1.09004700	      0.85022300	     -0.35126500	      1.20720900	      0.46598800	     -0.18858400	      0.93112300	      0.46040000	     -0.32246700	      1.29067200	      0.07095500	     -0.20770300	      0.69839600	      0.12791100	     -0.31040900	      1.14866300	      0.93267200	     -0.27178900	      1.15051000	      0.93610000	     -0.15168100	      1.14681600	      0.92924300	     -0.39189700	      0.95984900	      0.97637500	     -0.23051800	      0.96697200	      0.97383800	     -0.31673400	      1.21989400	      0.47090100	     -0.12881000	      0.93428600	      0.44932400	     -0.38327900	      1.18921500	      0.45876600	     -0.24384300	      0.92132800	      0.44914500	     -0.26898800	      1.27974000	      0.06692700	     -0.16943700	      0.68135200	      0.13865600	     -0.34380100	      1.29930400	      0.08637800	     -0.23498600	      0.70965500	      0.13950400	     -0.28311700	      0.96251400	      1.40201500	     -0.25151000	      1.08603600	      1.31545100	     -0.20072900	      1.09440400	      1.32507300	     -0.30811300	      1.07349900	      1.32920900	     -0.25220800	      1.14727300	      1.16239000	     -0.27301500	      1.22316200	      0.56843500	     -0.05342100	      1.10523800	      0.48418500	     -0.33466100	      1.21601700	      0.63876600	     -0.11495300	      1.05712200	      0.56173800	     -0.37258000	      1.23922100	      0.55700200	     -0.14253200	      1.00626100	      0.48747500	     -0.36669800	      1.27734400	      0.19750800	     -0.07678900	      0.77660600	      0.23932700	     -0.43334800	      1.27159800	      0.16458900	     -0.15101300	      0.74662600	      0.21617800	     -0.36140100	      1.41638000	      0.04427100	     -0.18710400	      0.78041300	      0.04013800	     -0.32692100	    -68.91240029	    354.82873894	    -12.86868162	      1.29564673	      0.00000000	     -0.20812518	    110.27492793	    383.81216551	      3.14724946	      0.79131573	      0.00000000	     -0.31461670	      0.00000000	     -0.37657715	      0.00000000	      0.00000000	     -0.99576648	      0.00000000	      1.08031201	      0.85898191	     -0.26217890	      1.07057643	      0.86774087	     -0.17309287	      1.09004748	      0.85022295	     -0.35126495	      1.20720911	      0.46598825	     -0.18858398	      0.93112272	      0.46040013	     -0.32246661	      1.29067183	      0.07095507	     -0.20770261	      0.69839638	      0.12791052	     -0.31040874	      1.14866304	      0.93267179	     -0.27178928	      1.15051043	      0.93610018	     -0.15168147	      1.14681554	      0.92924333	     -0.39189708	      0.95984942	      0.97637480	     -0.23051772	      0.96697164	      0.97383773	     -0.31673437	      1.21989357	      0.47090071	     -0.12880999	      0.93428564	      0.44932356	     -0.38327882	      1.18921494	      0.45876619	     -0.24384268	      0.92132765	      0.44914526	     -0.26898843	      1.27974021	      0.06692699	     -0.16943677	      0.68135244	      0.13865560	     -0.34380108	      1.29930353	      0.08637761	     -0.23498590	      0.70965499	      0.13950406	     -0.28311700	      0.96251380	      1.40201545	     -0.25150990	      1.08603585	      1.31545115	     -0.20072883	      1.09440422	      1.32507348	     -0.30811328	      1.07349920	      1.32920885	     -0.25220838	      1.14727271	      1.16239023	     -0.27301452	      1.22316217	      0.56843537	     -0.05342108	      1.10523760	      0.48418495	     -0.33466098	      1.21601725	      0.63876617	     -0.11495329	      1.05712247	      0.56173760	     -0.37258008	      1.23922145	      0.55700231	     -0.14253201	      1.00626147	      0.48747548	     -0.36669809	      1.27734387	      0.19750822	     -0.07678946	      0.77660561	      0.23932740	     -0.43334791	      1.27159786	      0.16458933	     -0.15101312	      0.74662602	      0.21617778	     -0.36140054	      1.41637981	      0.04427079	     -0.18710355	      0.78041291	      0.04013834	     -0.32692140
